<?xml version="1.0" encoding="UTF-8"?>
<svg width="32px" height="30px" viewBox="0 0 32 30" version="1.1" xmlns="http://www.w3.org/2000/svg" xmlns:xlink="http://www.w3.org/1999/xlink">
    <g id="Page-1" stroke="none" stroke-width="1" fill="none" fill-rule="evenodd">
        <g id="Desktop-HD" transform="translate(-59.000000, -202.000000)" fill="#1d1d1d">
            <g id="SideMenu" transform="translate(-2.000000, 0.000000)">
                <g id="Components" transform="translate(33.000000, 202.000000)">
                    <path d="M28.915,17.0377079 L42.492,23.1397079 C43.691,23.7057079 44.209,23.7057079 45.509,23.1397079 L59.085,17.0377079 C59.755,16.7247079 60,15.2557079 60,14.4647079 C59.127,14.9017079 57.891,15.5247079 57.867,15.5307079 L44,21.9227079 L30.133,15.5307079 C30.181,15.5597079 28.906,14.9827079 28,14.4647079 C28,15.2387079 28.194,16.6547079 28.915,17.0377079 L28.915,17.0377079 Z M44,28.3157079 L30.133,21.9227079 C30.181,21.9527079 28.906,21.3757079 28,20.8577079 C28,21.6307079 28.194,23.0467079 28.915,23.4297079 L42.492,29.5327079 C43.691,30.0987079 44.209,30.0987079 45.509,29.5327079 L59.085,23.4297079 C59.755,23.1177079 60,21.6487079 60,20.8577079 C59.127,21.2937079 57.891,21.9177079 57.867,21.9227079 L44,28.3157079 L44,28.3157079 Z M44,1.67870791 L57.867,9.13670791 L44,14.9807079 L30.133,9.13670791 L44,1.67870791 L44,1.67870791 Z M28.915,10.6437079 L42.492,16.7477079 C43.691,17.3127079 44.209,17.3127079 45.509,16.7477079 L59.085,10.6437079 C60.085,10.1777079 60.118,8.19670791 59.085,7.62970791 L45.509,0.461707906 C44.442,-0.170292094 43.691,-0.137292094 42.492,0.461707906 L28.915,7.62970791 C27.882,8.29570791 27.849,10.0787079 28.915,10.6437079 L28.915,10.6437079 Z M44,1.67870791 C44.1,1.79570791 44.074,1.70370791 44,1.67870791 L44,1.67870791 Z" id="ComponentsIcon"></path>
                </g>
            </g>
        </g>
    </g>
</svg>