<?xml version="1.0" encoding="UTF-8"?>
<svg width="32px" height="32px" viewBox="0 0 32 32" version="1.1" xmlns="http://www.w3.org/2000/svg" xmlns:xlink="http://www.w3.org/1999/xlink">
    <g id="Page-1" stroke="none" stroke-width="1" fill="none" fill-rule="evenodd">
        <g id="Desktop-HD" transform="translate(-59.000000, -399.000000)" fill="#1d1d1d">
            <g id="SideMenu" transform="translate(-2.000000, 0.000000)">
                <g id="Media" transform="translate(50.000000, 399.000000)">
                    <path d="M19,10 C17.896,10 17,9.104 17,8 C17,6.896 17.896,6 19,6 C20.104,6 21,6.896 21,8 C21,9.104 20.104,10 19,10 L19,10 Z M19,4 C16.791,4 15,5.791 15,8 C15,10.209 16.791,12 19,12 C21.209,12 23,10.209 23,8 C23,5.791 21.209,4 19,4 L19,4 Z M41,16.8997627 L35,10.8642163 L25.059,20.8226709 L21,16.7736939 L13,24 L13,3.96982585 C13,2.88248198 13.896,2 15,2 L39,2 C40.104,2 41,2.88248198 41,3.96982585 L41,16.8997627 L41,16.8997627 Z M41,28.000125 C41,29.104056 40.075399,30 38.9361585,30 L33.6031921,30 L26,22.5354665 L34.8084755,14 L41,19.999625 L41,28.000125 L41,28.000125 Z M14.9998889,30 C13.8959502,30 13,29.108901 13,28.0109398 L13,27.0770761 L20.9445586,20 L31,30 L14.9998889,30 L14.9998889,30 Z M39,0 L15,0 C12.791,0 11,1.791 11,4 L11,28 C11,30.209 12.791,32 15,32 L39,32 C41.209,32 43,30.209 43,28 L43,4 C43,1.791 41.209,0 39,0 L39,0 Z" id="MediaIcon"></path>
                </g>
            </g>
        </g>
    </g>
</svg>