<?xml version="1.0" encoding="UTF-8"?>
<svg width="32px" height="32px" viewBox="0 0 32 32" version="1.1" xmlns="http://www.w3.org/2000/svg" xmlns:xlink="http://www.w3.org/1999/xlink">
    <g id="Page-1" stroke="none" stroke-width="1" fill="none" fill-rule="evenodd">
        <g id="Desktop-HD" transform="translate(-59.000000, -496.000000)" fill="#1d1d1d">
            <g id="SideMenu" transform="translate(-2.000000, 0.000000)">
                <g id="Members" transform="translate(44.000000, 496.000000)">
                    <path d="M48,18 L42,18 C41.447,18 41,18.448 41,19 C41,19.553 41.447,20 42,20 L48,20 C48.553,20 49,19.553 49,19 C49,18.448 48.553,18 48,18 L48,18 Z M48,12 L40,12 C39.447,12 39,12.447 39,13 C39,13.553 39.447,14 40,14 L48,14 C48.553,14 49,13.553 49,13 C49,12.447 48.553,12 48,12 L48,12 Z M48,24 L42,24 C41.447,24 41,24.448 41,25 C41,25.553 41.447,26 42,26 L48,26 C48.553,26 49,25.553 49,25 C49,24.448 48.553,24 48,24 L48,24 Z M40,8 L48,8 C48.553,8 49,7.553 49,7 C49,6.448 48.553,6 48,6 L40,6 C39.447,6 39,6.448 39,7 C39,7.553 39.447,8 40,8 L40,8 Z M37,25.5 C37,27.985 34.802,30 32.091,30 L23.909,30 C21.198,30 19,27.985 19,25.5 L19,22.5 C19,20.374 20.613,18.604 22.775,18.133 C24.25,19.304 26.05,20 28,20 C29.95,20 31.75,19.304 33.225,18.133 C35.387,18.604 37,20.374 37,22.5 L37,25.5 L37,25.5 Z M21,10 C21,5.582 24.134,2 28,2 C31.866,2 35,5.582 35,10 C35,14.418 31.866,18 28,18 C24.134,18 21,14.418 21,10 L21,10 Z M34.951,16.353 C36.23,14.625 37,12.412 37,10 C37,4.478 32.971,0 28,0 C23.029,0 19,4.478 19,10 C19,12.412 19.77,14.625 21.049,16.353 C18.699,17.165 17,19.373 17,22 L17,26 C17,29.313 19.687,32 23,32 L33,32 C36.313,32 39,29.313 39,26 L39,22 C39,19.373 37.301,17.165 34.951,16.353 L34.951,16.353 Z" id="MembersIcon"></path>
                </g>
            </g>
        </g>
    </g>
</svg>