<?xml version="1.0" encoding="UTF-8"?>
<svg width="30px" height="30px" viewBox="0 0 30 30" version="1.1" xmlns="http://www.w3.org/2000/svg" xmlns:xlink="http://www.w3.org/1999/xlink">
    <g id="Page-1" stroke="none" stroke-width="1" fill="none" fill-rule="evenodd">
        <g id="Desktop-HD" transform="translate(-60.000000, -97.000000)" fill="#1d1d1d">
            <g id="SideMenu" transform="translate(-2.000000, 0.000000)">
                <g id="Settings" transform="translate(50.000000, 97.000000)">
                    <path d="M39.519296,21.134 L38.527296,22.866 C38.253296,23.345 37.647296,23.508 37.172296,23.232 L34.417296,21.628 C33.019296,23.219 31.128296,24.359 28.982296,24.799 L28.982296,27 C28.982296,27.553 28.539296,28 27.991296,28 L26.007296,28 C25.459296,28 25.016296,27.553 25.016296,27 L25.016296,24.799 C22.870296,24.359 20.979296,23.219 19.581296,21.628 L16.826296,23.232 C16.351296,23.508 15.745296,23.345 15.471296,22.866 L14.479296,21.134 C14.205296,20.656 14.368296,20.044 14.842296,19.769 L17.608296,18.157 C17.279296,17.163 17.082296,16.106 17.082296,15 C17.082296,13.894 17.279296,12.838 17.608296,11.843 L14.842296,10.232 C14.368296,9.956 14.205296,9.345 14.479296,8.866 L15.471296,7.134 C15.745296,6.656 16.351296,6.492 16.826296,6.768 L19.581296,8.372 C20.979296,6.781 22.870296,5.641 25.016296,5.201 L25.016296,3 C25.016296,2.447 25.459296,2 26.007296,2 L27.991296,2 C28.539296,2 28.982296,2.447 28.982296,3 L28.982296,5.201 C31.128296,5.641 33.019296,6.781 34.417296,8.372 L37.172296,6.768 C37.647296,6.492 38.253296,6.656 38.527296,7.134 L39.519296,8.866 C39.793296,9.345 39.630296,9.956 39.156296,10.232 L36.390296,11.843 C36.719296,12.838 36.916296,13.894 36.916296,15 C36.916296,16.106 36.719296,17.163 36.390296,18.157 L39.156296,19.769 C39.630296,20.044 39.793296,20.656 39.519296,21.134 L39.519296,21.134 Z M41.007296,18.536 L38.684296,17.184 C38.814296,16.474 38.900296,15.749 38.900296,15 C38.900296,14.252 38.814296,13.526 38.684296,12.816 L41.007296,11.464 C41.956296,10.912 42.280296,9.688 41.732296,8.732 L39.749296,5.268 C39.202296,4.312 37.988296,3.983 37.040296,4.536 L34.693296,5.901 C33.597296,4.961 32.351296,4.192 30.966296,3.697 L30.966296,2 C30.966296,0.896 30.078296,0 28.982296,0 L25.016296,0 C23.920296,0 23.032296,0.896 23.032296,2 L23.032296,3.697 C21.647296,4.192 20.401296,4.961 19.305296,5.901 L16.958296,4.536 C16.010296,3.983 14.796296,4.312 14.249296,5.268 L12.266296,8.732 C11.718296,9.688 12.043296,10.912 12.991296,11.464 L15.314296,12.816 C15.184296,13.526 15.098296,14.252 15.098296,15 C15.098296,15.749 15.184296,16.474 15.314296,17.184 L12.991296,18.536 C12.043296,19.088 11.718296,20.312 12.266296,21.268 L14.249296,24.732 C14.796296,25.688 16.010296,26.017 16.958296,25.464 L19.305296,24.099 C20.401296,25.039 21.647296,25.809 23.032296,26.303 L23.032296,28 C23.032296,29.104 23.920296,30 25.016296,30 L28.982296,30 C30.078296,30 30.966296,29.104 30.966296,28 L30.966296,26.303 C32.351296,25.809 33.597296,25.039 34.693296,24.099 L37.040296,25.464 C37.988296,26.017 39.202296,25.688 39.749296,24.732 L41.732296,21.268 C42.280296,20.312 41.956296,19.088 41.007296,18.536 L41.007296,18.536 Z M26.999296,18 C25.356296,18 24.024296,16.657 24.024296,15 C24.024296,13.344 25.356296,12 26.999296,12 C28.642296,12 29.974296,13.344 29.974296,15 C29.974296,16.657 28.642296,18 26.999296,18 L26.999296,18 Z M26.999296,10 C24.260296,10 22.041296,12.238 22.041296,15 C22.041296,17.762 24.260296,20 26.999296,20 C29.738296,20 31.958296,17.762 31.958296,15 C31.958296,12.238 29.738296,10 26.999296,10 L26.999296,10 Z" id="Settingsicon"></path>
                </g>
            </g>
        </g>
    </g>
</svg>